<?xml version="1.0" standalone="no"?>
<!DOCTYPE svg PUBLIC "-//W3C//DTD SVG 20010904//EN"
 "http://www.w3.org/TR/2001/REC-SVG-20010904/DTD/svg10.dtd">
<svg version="1.0" xmlns="http://www.w3.org/2000/svg"
 width="300.000000pt" height="300.000000pt" viewBox="0 0 300.000000 300.000000"
 preserveAspectRatio="xMidYMid meet">

<g transform="translate(0.000000,300.000000) scale(0.100000,-0.100000)"
fill="#000000" stroke="none">
<path d="M1605 2878 c-11 -6 -24 -17 -28 -25 -10 -17 -36 -17 -80 2 -23 9 -69
15 -123 15 -266 0 -450 -165 -530 -476 -31 -119 -37 -296 -14 -381 13 -50 13
-54 -7 -75 -32 -35 -43 -72 -43 -151 0 -98 35 -168 107 -217 42 -28 56 -46 74
-90 31 -77 82 -178 113 -223 28 -41 34 -75 14 -81 -7 -2 -119 -29 -248 -61
-129 -31 -249 -63 -267 -70 -48 -20 -121 -99 -148 -158 -12 -29 -28 -90 -35
-137 -6 -47 -15 -107 -20 -135 -60 -333 -58 -398 16 -471 l43 -44 1049 0
c1011 0 1050 1 1088 19 70 34 114 102 114 177 0 33 -27 218 -50 339 -5 28 -15
86 -21 130 -14 92 -29 132 -71 193 -52 75 -108 103 -298 146 -41 9 -91 21
-110 26 -19 5 -66 16 -105 25 -151 35 -155 37 -155 57 0 11 8 32 19 46 28 40
85 158 112 231 19 51 32 70 66 95 125 88 152 276 58 388 -30 35 -32 74 -9 168
24 100 21 288 -6 370 -63 191 -224 315 -400 309 l-75 -3 1 37 c1 40 -1 42 -31
25z m191 -567 c76 -37 141 -112 198 -228 38 -76 44 -111 24 -131 -24 -24 -37
-13 -40 36 l-3 47 -222 3 -223 2 0 -45 c0 -25 -3 -45 -7 -46 -44 -7 -80 -5
-90 3 -7 6 -13 28 -13 49 l0 39 -220 0 -219 0 -3 -57 c-2 -47 -6 -58 -22 -61
-27 -6 -36 15 -36 85 0 101 40 168 122 203 74 32 213 25 358 -19 58 -17 119
-31 135 -31 53 0 117 40 152 95 57 87 51 84 109 56z m-425 -318 c6 -6 8 -57 7
-114 l-3 -104 -177 -3 -178 -2 0 109 c0 85 3 112 14 118 20 11 326 7 337 -4z
m552 7 c4 0 7 -52 7 -115 l0 -115 -175 0 -175 0 0 114 c0 67 4 116 10 118 7 2
281 1 333 -2z m156 -96 c17 -21 21 -41 21 -99 0 -70 -1 -73 -41 -119 -22 -25
-49 -46 -60 -46 -20 0 -28 -14 -70 -123 -35 -93 -123 -143 -268 -153 -83 -6
-87 -6 -110 20 -47 51 -113 22 -113 -49 0 -20 8 -45 18 -56 20 -23 67 -25 84
-4 8 9 30 15 59 15 43 0 111 9 189 26 44 9 43 -14 -3 -76 -75 -102 -182 -175
-276 -187 -80 -11 -196 42 -280 129 -76 79 -174 247 -209 358 -16 53 -36 80
-60 80 -24 0 -88 67 -101 107 -15 47 -7 128 16 153 23 25 45 26 52 1 3 -11 15
-21 27 -23 19 -3 21 -10 24 -66 l3 -62 217 2 217 3 5 35 c5 35 5 35 55 35 50
0 50 0 55 -35 l5 -35 220 0 220 0 3 73 c3 64 5 72 22 72 11 0 20 6 20 13 0 14
19 37 31 37 4 0 17 -12 28 -26z m-157 -794 c31 -7 59 -18 62 -25 3 -8 -60
-102 -143 -212 -81 -109 -166 -224 -190 -256 -23 -32 -48 -56 -54 -54 -7 2
-15 21 -20 43 -9 43 -18 89 -37 177 l-13 58 38 39 39 40 -23 21 c-27 25 -18
39 36 58 43 15 115 65 153 106 27 29 33 29 152 5z m-692 -35 c55 -45 115 -78
164 -91 29 -7 32 -20 11 -49 -14 -17 -12 -22 22 -57 l37 -38 -12 -62 c-7 -35
-17 -83 -22 -108 -5 -25 -12 -57 -15 -72 -7 -35 -37 -37 -58 -5 -8 13 -94 124
-191 247 -143 181 -174 226 -164 237 13 12 115 41 153 42 11 1 45 -19 75 -44z
m960 -31 c30 -7 87 -21 125 -30 88 -20 114 -34 153 -79 59 -66 65 -83 96 -280
8 -49 24 -148 36 -220 23 -146 21 -178 -15 -217 -37 -40 -82 -48 -277 -48
-147 0 -179 3 -192 16 -13 12 -16 40 -16 138 0 94 -3 126 -14 135 -11 9 -18 8
-30 -4 -13 -13 -16 -40 -16 -145 0 -107 -3 -129 -16 -134 -9 -3 -246 -6 -528
-6 -385 0 -515 3 -524 12 -8 8 -12 52 -12 134 0 96 -3 124 -15 134 -12 10 -18
10 -30 0 -11 -9 -15 -42 -17 -143 l-3 -132 -221 -3 -222 -2 -31 35 c-28 32
-31 42 -31 101 0 36 4 84 9 107 11 50 24 131 47 287 20 135 45 192 106 244 39
34 64 44 188 76 19 5 62 16 94 24 32 8 65 12 72 8 7 -4 138 -167 291 -362 185
-235 286 -356 300 -358 24 -4 15 -14 349 433 119 160 222 293 228 297 11 7 22
6 116 -18z"/>
</g>
</svg>
